<svg width="237.201" height="59.601" viewBox="0 0 237.201 59.601" xmlns="http://www.w3.org/2000/svg"><g id="svgGroup" stroke-linecap="round" fill-rule="evenodd" font-size="9pt" stroke="#ff385c" stroke-width="0.25mm" fill="#ff385c" style="stroke:#ff385c;stroke-width:0.25mm;fill:#ff385c"><path d="M 110.48 52.32 L 110.32 58.8 L 102 58.8 L 102 0 L 110.48 0 L 110.48 22.64 L 110.08 28.88 A 9.815 9.815 0 0 1 112.259 25.74 Q 113.283 24.727 114.67 23.843 A 18.855 18.855 0 0 1 115.4 23.4 Q 119.36 21.12 124 21.12 A 20.464 20.464 0 0 1 128.942 21.692 A 16.331 16.331 0 0 1 133.48 23.56 Q 137.52 26 139.68 30.36 A 20.473 20.473 0 0 1 141.537 36.357 A 26.954 26.954 0 0 1 141.84 40.48 Q 141.84 46.32 139.32 50.64 Q 136.8 54.96 132.6 57.28 Q 128.4 59.6 123.44 59.6 A 15.627 15.627 0 0 1 118.078 58.697 A 14.431 14.431 0 0 1 115.4 57.4 A 16.547 16.547 0 0 1 113.045 55.659 Q 111.814 54.555 111.027 53.313 A 9.203 9.203 0 0 1 110.48 52.32 Z M 205.84 52.32 L 205.68 58.8 L 197.36 58.8 L 197.36 0 L 205.84 0 L 205.84 22.64 L 205.44 28.88 A 9.815 9.815 0 0 1 207.619 25.74 Q 208.643 24.727 210.03 23.843 A 18.855 18.855 0 0 1 210.76 23.4 Q 214.72 21.12 219.36 21.12 A 20.464 20.464 0 0 1 224.302 21.692 A 16.331 16.331 0 0 1 228.84 23.56 Q 232.88 26 235.04 30.36 A 20.473 20.473 0 0 1 236.897 36.357 A 26.954 26.954 0 0 1 237.2 40.48 Q 237.2 46.32 234.68 50.64 Q 232.16 54.96 227.96 57.28 Q 223.76 59.6 218.8 59.6 A 15.627 15.627 0 0 1 213.438 58.697 A 14.431 14.431 0 0 1 210.76 57.4 A 16.547 16.547 0 0 1 208.405 55.659 Q 207.174 54.555 206.387 53.313 A 9.203 9.203 0 0 1 205.84 52.32 Z M 151.04 58.8 L 151.04 22.08 L 159.52 22.08 L 159.6 28.8 A 12.803 12.803 0 0 1 163.997 23.555 A 15.363 15.363 0 0 1 164.4 23.28 A 13.104 13.104 0 0 1 170.274 21.216 A 16.601 16.601 0 0 1 172.08 21.12 Q 175.869 21.12 178.483 22.17 A 9.569 9.569 0 0 1 180.8 23.48 A 10.982 10.982 0 0 1 184.33 28.315 A 14.478 14.478 0 0 1 184.88 30.08 Q 185.579 32.929 185.808 36.933 A 73.459 73.459 0 0 1 185.92 41.12 L 185.92 58.8 L 177.28 58.8 L 177.28 41.36 Q 177.28 34.4 175.92 31.32 Q 174.572 28.266 170.393 28.24 A 11.577 11.577 0 0 0 170.32 28.24 A 8.53 8.53 0 0 0 167.308 28.811 A 11.615 11.615 0 0 0 165.44 29.72 Q 162.96 31.2 161.32 34 Q 159.68 36.8 159.68 40.56 L 159.68 58.8 L 151.04 58.8 Z M 31.36 28.24 L 31.52 22.08 L 39.76 22.08 L 39.76 58.8 L 31.6 58.8 L 31.44 52.32 Q 30.08 55.2 26.48 57.4 A 15.097 15.097 0 0 1 18.818 59.595 A 17.999 17.999 0 0 1 18.4 59.6 Q 13.44 59.6 9.24 57.24 Q 5.04 54.88 2.52 50.52 Q 0 46.16 0 40.32 A 25.553 25.553 0 0 1 0.484 35.236 A 19.487 19.487 0 0 1 2.2 30.24 Q 4.4 25.92 8.48 23.52 A 17.228 17.228 0 0 1 14.692 21.366 A 22.542 22.542 0 0 1 18.08 21.12 A 16.178 16.178 0 0 1 23.33 21.962 A 15.278 15.278 0 0 1 24.08 22.24 Q 26.88 23.36 28.8 25 A 12.967 12.967 0 0 1 29.963 26.116 Q 30.939 27.187 31.36 28.24 Z M 72.72 58.8 L 72.72 22.08 L 81.36 22.08 L 81.36 29.28 A 13.047 13.047 0 0 1 83.639 25.178 A 12.109 12.109 0 0 1 85.52 23.36 Q 88.4 21.12 92.08 21.12 A 21.552 21.552 0 0 1 93.227 21.148 Q 94.864 21.236 95.592 21.596 A 2.023 2.023 0 0 1 95.6 21.6 L 94.4 30.32 Q 93.733 29.875 91.62 29.843 A 22.218 22.218 0 0 0 91.28 29.84 Q 87.52 29.84 84.44 32.24 Q 81.686 34.386 81.395 38.834 A 16.606 16.606 0 0 0 81.36 39.92 L 81.36 58.8 L 72.72 58.8 Z M 52 58.8 L 52 22.08 L 60.96 22.08 L 60.96 58.8 L 52 58.8 Z M 111.2 39.92 L 111.2 40.48 A 13.717 13.717 0 0 0 111.669 44.122 A 11.755 11.755 0 0 0 112.68 46.64 A 11.647 11.647 0 0 0 115.02 49.678 A 10.64 10.64 0 0 0 116.6 50.88 Q 119.04 52.4 122 52.4 A 13.021 13.021 0 0 0 125.292 52.008 A 8.953 8.953 0 0 0 130 49.08 A 11.598 11.598 0 0 0 132.469 43.878 A 16.603 16.603 0 0 0 132.8 40.48 Q 132.8 35.225 130.147 31.93 A 10.866 10.866 0 0 0 130.04 31.8 Q 127.28 28.48 122 28.48 A 10.831 10.831 0 0 0 117.503 29.398 A 10.536 10.536 0 0 0 114.32 31.64 A 10.658 10.658 0 0 0 111.355 37.737 A 14.872 14.872 0 0 0 111.2 39.92 Z M 206.56 39.92 L 206.56 40.48 A 13.717 13.717 0 0 0 207.029 44.122 A 11.755 11.755 0 0 0 208.04 46.64 A 11.647 11.647 0 0 0 210.38 49.678 A 10.64 10.64 0 0 0 211.96 50.88 Q 214.4 52.4 217.36 52.4 A 13.021 13.021 0 0 0 220.652 52.008 A 8.953 8.953 0 0 0 225.36 49.08 A 11.598 11.598 0 0 0 227.829 43.878 A 16.603 16.603 0 0 0 228.16 40.48 Q 228.16 35.225 225.507 31.93 A 10.866 10.866 0 0 0 225.4 31.8 Q 222.64 28.48 217.36 28.48 A 10.831 10.831 0 0 0 212.863 29.398 A 10.536 10.536 0 0 0 209.68 31.64 A 10.658 10.658 0 0 0 206.715 37.737 A 14.872 14.872 0 0 0 206.56 39.92 Z M 30.64 40.96 L 30.64 40.4 A 14.076 14.076 0 0 0 30.185 36.758 A 11.945 11.945 0 0 0 29.2 34.24 A 11.007 11.007 0 0 0 26.524 30.892 A 10.518 10.518 0 0 0 25.28 30 Q 22.8 28.48 19.84 28.48 A 12.635 12.635 0 0 0 16.527 28.89 A 8.938 8.938 0 0 0 11.92 31.8 A 11.598 11.598 0 0 0 9.451 37.002 A 16.603 16.603 0 0 0 9.12 40.4 Q 9.12 45.655 11.774 48.95 A 10.866 10.866 0 0 0 11.88 49.08 A 8.942 8.942 0 0 0 17.179 52.152 A 13.547 13.547 0 0 0 19.84 52.4 A 10.831 10.831 0 0 0 24.338 51.482 A 10.536 10.536 0 0 0 27.52 49.24 A 10.658 10.658 0 0 0 30.486 43.143 A 14.872 14.872 0 0 0 30.64 40.96 Z M 56.4 15.2 Q 53.92 15.2 52.24 13.52 Q 50.56 11.84 50.56 9.36 Q 50.56 7.12 52.24 5.52 A 5.745 5.745 0 0 1 56.131 3.925 A 7.49 7.49 0 0 1 56.4 3.92 Q 58.8 3.92 60.48 5.52 Q 62.16 7.12 62.16 9.36 A 6.178 6.178 0 0 1 61.763 11.607 A 5.627 5.627 0 0 1 60.52 13.52 A 5.49 5.49 0 0 1 56.555 15.198 A 7.209 7.209 0 0 1 56.4 15.2 Z" vector-effect="non-scaling-stroke"/></g></svg>