<svg height="inherit" width="inherit" fill="#717171" version="1.1"
    xmlns="http://www.w3.org/2000/svg" xmlns:xlink="http://www.w3.org/1999/xlink" x="0px" y="0px"
    viewBox="0 100 1000 1000" enable-background="new 0 0 1000 1000" xml:space="preserve">
    <metadata> Svg Vector Icons : http://www.onlinewebfonts.com/icon </metadata>
    <g><path d="M360.2,684.1c-56.6-42.4-93.1-110-93.1-186.1c0-128.4,104.1-232.4,232.4-232.4c128.4,0,232.4,104.1,232.4,232.4c0,76.3-36.8,144.1-93.6,186.4C743.9,722,829.9,800.8,876.9,901.6C947.5,816.7,990,707.5,990,588.4c0-270.6-219.4-490-490-490c-270.6,0-490,219.4-490,490C10,706.6,51.8,815,121.5,899.6C168.8,799.5,254.8,721.3,360.2,684.1z"/></g>
    </svg>